<svg width="50" height="25" viewBox="0 0 50 25" fill="none" xmlns="http://www.w3.org/2000/svg">
<path d="M49.6696 11.7029L38.3062 0.395271C37.898 -0.0790377 37.1806 -0.13433 36.704 0.271957C36.2273 0.678146 36.1718 1.39199 36.5801 1.8663C36.6181 1.91051 36.6595 1.95181 36.704 1.98961L46.1242 11.3749H1.13631C0.508781 11.3749 0 11.8812 0 12.5057C0 13.1303 0.508781 13.6365 1.13631 13.6365H46.1242L36.704 23.0104C36.2273 23.4166 36.1718 24.1304 36.5801 24.6047C36.9883 25.079 37.7056 25.1343 38.1823 24.728C38.2267 24.6901 38.2682 24.6489 38.3062 24.6047L49.6697 13.2971C50.1102 12.8562 50.1102 12.144 49.6696 11.7029Z" fill="#BEA183"/>
</svg>
