<svg width="9" height="11" viewBox="0 0 9 11" fill="none" xmlns="http://www.w3.org/2000/svg">
<path d="M6.01908 5.07837C6.83636 4.59321 7.38146 3.72922 7.38146 2.74597C7.38146 1.23183 6.08891 0 4.50013 0C2.91135 0 1.61881 1.23183 1.61881 2.74597C1.61881 3.72922 2.1639 4.59312 2.9811 5.07829C1.2449 5.67339 0 7.25828 0 9.11525V10.6673C0 10.851 0.156307 11 0.34907 11H8.65102C8.84378 11 9 10.851 9 10.6673V9.11525C9 7.25836 7.75518 5.67355 6.01908 5.07837ZM8.30195 10.3347H0.69814V9.11525C0.69814 7.11737 2.4036 5.49203 4.50004 5.49203C6.5964 5.49203 8.30195 7.11737 8.30195 9.11525V10.3347ZM6.68332 2.74597C6.68332 3.89329 5.704 4.82668 4.50013 4.82668C3.29626 4.82668 2.31695 3.89329 2.31695 2.74597C2.31695 1.59874 3.29626 0.665344 4.50013 0.665344C5.704 0.665344 6.68332 1.59874 6.68332 2.74597Z" fill="#342C23"/>
</svg>
