<svg width="10" height="11" viewBox="0 0 10 11" fill="none" xmlns="http://www.w3.org/2000/svg">
<path d="M9.99813 10.6385L9.11998 2.6769C9.10156 2.51023 8.954 2.38367 8.77796 2.38367H7.12745V2.02541C7.12745 0.908638 6.17305 0 5.00004 0C3.82695 0 2.87255 0.908638 2.87255 2.02541V2.38367H1.22203C1.046 2.38367 0.898437 2.51023 0.880014 2.6769L0.00186701 10.6385C-0.00827022 10.7307 0.0231992 10.8228 0.0883418 10.8917C0.153573 10.9606 0.246482 11 0.343888 11H9.65602C9.75351 11 9.84642 10.9606 9.91157 10.8917C9.97689 10.8228 10.0083 10.7307 9.99813 10.6385ZM3.56029 2.02541C3.56029 1.26968 4.20617 0.65477 5.00004 0.65477C5.79383 0.65477 6.4397 1.26968 6.4397 2.02541V2.38367H3.56029V2.02541ZM0.725752 10.3452L1.5317 3.03844H2.87255V3.75993C2.87255 3.9407 3.02655 4.08732 3.21642 4.08732C3.4063 4.08732 3.56029 3.9407 3.56029 3.75993V3.03844H6.4397V3.75993C6.4397 3.9407 6.5937 4.08732 6.78358 4.08732C6.97345 4.08732 7.12745 3.9407 7.12745 3.75993V3.03844H8.46829L9.27424 10.3452H0.725752Z" fill="#342C23"/>
</svg>
