<svg width="12" height="11" viewBox="0 0 12 11" fill="none" xmlns="http://www.w3.org/2000/svg">
<path d="M6 11C5.82916 11 5.66446 10.9362 5.5361 10.8204C5.05133 10.3836 4.58395 9.97322 4.1716 9.61118L4.16949 9.60929C2.96054 8.5478 1.91656 7.6311 1.19019 6.72808C0.378204 5.71856 0 4.7614 0 3.71575C0 2.69982 0.338104 1.76255 0.951965 1.07649C1.57315 0.382319 2.42551 0 3.35229 0C4.04498 0 4.67935 0.225637 5.23773 0.670591C5.51953 0.895191 5.77496 1.17007 6 1.4907C6.22513 1.17007 6.48047 0.895191 6.76236 0.670591C7.32074 0.225637 7.95511 0 8.6478 0C9.57449 0 10.4269 0.382319 11.0481 1.07649C11.662 1.76255 12 2.69982 12 3.71575C12 4.7614 11.6219 5.71856 10.8099 6.72799C10.0835 7.6311 9.03964 8.54771 7.83087 9.60911C7.41779 9.97171 6.94968 10.3828 6.46381 10.8206C6.33554 10.9362 6.17075 11 6 11ZM3.35229 0.724265C2.62418 0.724265 1.95529 1.02367 1.46869 1.56739C0.974854 2.11931 0.70285 2.88225 0.70285 3.71575C0.70285 4.59519 1.02008 5.38171 1.73135 6.26596C2.41882 7.12068 3.44138 8.01851 4.62534 9.05812L4.62753 9.06001C5.04144 9.42346 5.51065 9.8355 5.99899 10.2755C6.49026 9.83465 6.96021 9.42196 7.37494 9.05794C8.55881 8.01833 9.58127 7.12068 10.2687 6.26596C10.9799 5.38171 11.2971 4.59519 11.2971 3.71575C11.2971 2.88225 11.0251 2.11931 10.5313 1.56739C10.0448 1.02367 9.37582 0.724265 8.6478 0.724265C8.11441 0.724265 7.62469 0.898964 7.19229 1.24346C6.80695 1.5506 6.53851 1.93886 6.38113 2.21053C6.3002 2.35023 6.15775 2.43362 6 2.43362C5.84225 2.43362 5.6998 2.35023 5.61887 2.21053C5.46158 1.93886 5.19315 1.5506 4.80771 1.24346C4.37531 0.898964 3.88559 0.724265 3.35229 0.724265Z" fill="#342C23"/>
</svg>
